G04*
G04 #@! TF.GenerationSoftware,Altium Limited,Altium Designer,21.2.2 (38)*
G04*
G04 Layer_Color=16711935*
%FSLAX44Y44*%
%MOMM*%
G71*
G04*
G04 #@! TF.SameCoordinates,38469D2A-1F5E-4814-807B-87B784357471*
G04*
G04*
G04 #@! TF.FilePolarity,Negative*
G04*
G01*
G75*
%ADD10R,2.0000X2.0000*%
G36*
X-360171Y-21000D02*
X-360171Y-22339D01*
X-359478Y-24926D01*
X-358139Y-27245D01*
X-356245Y-29139D01*
X-353926Y-30478D01*
X-351339Y-31171D01*
X-348661D01*
X-346074Y-30478D01*
X-343755Y-29139D01*
X-341861Y-27245D01*
X-340522Y-24926D01*
X-339829Y-22339D01*
X-339829Y-21000D01*
X-339829D01*
X-360171D01*
D02*
G37*
G36*
X-333671D02*
X-333671Y-22339D01*
X-332978Y-24926D01*
X-331639Y-27245D01*
X-329745Y-29139D01*
X-327426Y-30478D01*
X-324839Y-31171D01*
X-322161D01*
X-319574Y-30478D01*
X-317255Y-29139D01*
X-315361Y-27245D01*
X-314022Y-24926D01*
X-313329Y-22339D01*
X-313329Y-21000D01*
X-313329D01*
X-333671D01*
D02*
G37*
G36*
X-339829Y21000D02*
X-339829Y22339D01*
X-340522Y24926D01*
X-341861Y27245D01*
X-343755Y29139D01*
X-346074Y30478D01*
X-348661Y31171D01*
X-351339D01*
X-353926Y30478D01*
X-356245Y29139D01*
X-358139Y27245D01*
X-359478Y24926D01*
X-360171Y22339D01*
X-360171Y21000D01*
Y21000D01*
X-339829Y21000D01*
D02*
G37*
G36*
X-313079D02*
X-313079Y22339D01*
X-313772Y24926D01*
X-315111Y27245D01*
X-317005Y29139D01*
X-319324Y30478D01*
X-321911Y31171D01*
X-324589D01*
X-327176Y30478D01*
X-329495Y29139D01*
X-331389Y27245D01*
X-332728Y24926D01*
X-333421Y22339D01*
X-333421Y21000D01*
Y21000D01*
X-313079Y21000D01*
D02*
G37*
G36*
X-266074Y30478D02*
X-263755Y29139D01*
X-261861Y27245D01*
X-260522Y24926D01*
X-259829Y22339D01*
X-259829Y21000D01*
X-280171Y21000D01*
Y21000D01*
X-280171Y22339D01*
X-279478Y24926D01*
X-278139Y27245D01*
X-276245Y29139D01*
X-273926Y30478D01*
X-271339Y31171D01*
X-268661D01*
X-266074Y30478D01*
D02*
G37*
G36*
X-292824D02*
X-290505Y29139D01*
X-288611Y27245D01*
X-287272Y24926D01*
X-286579Y22339D01*
X-286579Y21000D01*
X-306921Y21000D01*
Y21000D01*
X-306921Y22339D01*
X-306228Y24926D01*
X-304889Y27245D01*
X-302995Y29139D01*
X-300676Y30478D01*
X-298089Y31171D01*
X-295411D01*
X-292824Y30478D01*
D02*
G37*
G36*
X-259829Y-22339D02*
X-260522Y-24926D01*
X-261861Y-27245D01*
X-263755Y-29139D01*
X-266074Y-30478D01*
X-268661Y-31171D01*
X-271339D01*
X-273926Y-30478D01*
X-276245Y-29139D01*
X-278139Y-27245D01*
X-279478Y-24926D01*
X-280171Y-22339D01*
X-280171Y-21000D01*
X-259829D01*
X-259829Y-22339D01*
D02*
G37*
G36*
X-286579D02*
X-287272Y-24926D01*
X-288611Y-27245D01*
X-290505Y-29139D01*
X-292824Y-30478D01*
X-295411Y-31171D01*
X-298089D01*
X-300676Y-30478D01*
X-302995Y-29139D01*
X-304889Y-27245D01*
X-306228Y-24926D01*
X-306921Y-22339D01*
X-306921Y-21000D01*
X-286579D01*
X-286579Y-22339D01*
D02*
G37*
G36*
X8809Y59357D02*
X14584Y58208D01*
X20219Y56498D01*
X25660Y54245D01*
X30853Y51469D01*
X35749Y48197D01*
X40301Y44462D01*
X44465Y40298D01*
X48201Y35746D01*
X51473Y30849D01*
X54249Y25656D01*
X56502Y20215D01*
X58212Y14580D01*
X59360Y8805D01*
X59938Y2944D01*
Y0D01*
Y-2944D01*
X59360Y-8805D01*
X58212Y-14580D01*
X56502Y-20215D01*
X54249Y-25656D01*
X51473Y-30849D01*
X48201Y-35746D01*
X44465Y-40298D01*
X40301Y-44462D01*
X35749Y-48197D01*
X30853Y-51469D01*
X25660Y-54245D01*
X20219Y-56498D01*
X14584Y-58208D01*
X8809Y-59357D01*
X2948Y-59934D01*
X-2941D01*
X-8801Y-59357D01*
X-14576Y-58208D01*
X-20212Y-56498D01*
X-25652Y-54245D01*
X-30845Y-51469D01*
X-35742Y-48197D01*
X-40294Y-44462D01*
X-44458Y-40298D01*
X-48194Y-35746D01*
X-51465Y-30849D01*
X-54241Y-25656D01*
X-56495Y-20215D01*
X-58204Y-14580D01*
X-59353Y-8805D01*
X-59930Y-2944D01*
Y0D01*
Y2944D01*
X-59353Y8805D01*
X-58204Y14580D01*
X-56495Y20215D01*
X-54241Y25656D01*
X-51465Y30849D01*
X-48194Y35746D01*
X-44458Y40298D01*
X-40294Y44462D01*
X-35742Y48197D01*
X-30845Y51469D01*
X-25652Y54245D01*
X-20212Y56498D01*
X-14576Y58208D01*
X-8801Y59357D01*
X-2941Y59934D01*
X2948D01*
X8809Y59357D01*
D02*
G37*
D10*
X-105000Y-88000D02*
D03*
Y-42000D02*
D03*
Y43000D02*
D03*
Y89000D02*
D03*
M02*
