G04*
G04 #@! TF.GenerationSoftware,Altium Limited,Altium Designer,21.2.2 (38)*
G04*
G04 Layer_Physical_Order=1*
G04 Layer_Color=255*
%FSLAX44Y44*%
%MOMM*%
G71*
G04*
G04 #@! TF.SameCoordinates,38469D2A-1F5E-4814-807B-87B784357471*
G04*
G04*
G04 #@! TF.FilePolarity,Positive*
G04*
G01*
G75*
%ADD10R,2.0000X2.0000*%
%ADD11C,10.0000*%
%ADD13C,0.1524*%
%ADD14C,0.2540*%
%ADD15C,0.9000*%
G36*
X-360006Y-21000D02*
Y-22317D01*
X-359325Y-24861D01*
X-358008Y-27142D01*
X-356145Y-29004D01*
X-353864Y-30322D01*
X-351320Y-31003D01*
X-348686D01*
X-346142Y-30322D01*
X-343861Y-29004D01*
X-341999Y-27142D01*
X-340682Y-24861D01*
X-340000Y-22317D01*
Y-21000D01*
D01*
X-360006D01*
D02*
G37*
G36*
X-333506D02*
Y-22317D01*
X-332825Y-24861D01*
X-331508Y-27142D01*
X-329645Y-29004D01*
X-327364Y-30322D01*
X-324820Y-31003D01*
X-322186D01*
X-319642Y-30322D01*
X-317361Y-29004D01*
X-315499Y-27142D01*
X-314182Y-24861D01*
X-313500Y-22317D01*
Y-21000D01*
D01*
X-333506D01*
D02*
G37*
G36*
X-339997Y21000D02*
Y22317D01*
X-340679Y24861D01*
X-341996Y27142D01*
X-343858Y29004D01*
X-346139Y30321D01*
X-348683Y31003D01*
X-351317D01*
X-353861Y30321D01*
X-356142Y29004D01*
X-358004Y27142D01*
X-359321Y24861D01*
X-360003Y22317D01*
Y21000D01*
D01*
X-339997D01*
D02*
G37*
G36*
X-313247D02*
Y22317D01*
X-313929Y24861D01*
X-315245Y27142D01*
X-317108Y29004D01*
X-319389Y30321D01*
X-321933Y31003D01*
X-324567D01*
X-327111Y30321D01*
X-329392Y29004D01*
X-331255Y27142D01*
X-332571Y24861D01*
X-333253Y22317D01*
Y21000D01*
D01*
X-313247D01*
D02*
G37*
G36*
X-95000Y56000D02*
X-115000D01*
Y76000D01*
X-95000D01*
Y56000D01*
D02*
G37*
G36*
X-266139Y30321D02*
X-263858Y29004D01*
X-261996Y27142D01*
X-260679Y24861D01*
X-259997Y22317D01*
Y21000D01*
X-280003D01*
Y22317D01*
X-279321Y24861D01*
X-278004Y27142D01*
X-276142Y29004D01*
X-273861Y30321D01*
X-271317Y31003D01*
X-268683D01*
X-266139Y30321D01*
D02*
G37*
G36*
X-292889D02*
X-290608Y29004D01*
X-288745Y27142D01*
X-287429Y24861D01*
X-286747Y22317D01*
Y21000D01*
X-306753D01*
Y22317D01*
X-306071Y24861D01*
X-304755Y27142D01*
X-302892Y29004D01*
X-300611Y30321D01*
X-298067Y31003D01*
X-295433D01*
X-292889Y30321D01*
D02*
G37*
G36*
X-260000Y-22317D02*
X-260682Y-24861D01*
X-261999Y-27142D01*
X-263861Y-29004D01*
X-266142Y-30322D01*
X-268686Y-31003D01*
X-271320D01*
X-273864Y-30322D01*
X-276145Y-29004D01*
X-278008Y-27142D01*
X-279325Y-24861D01*
X-280006Y-22317D01*
Y-21000D01*
X-260000D01*
Y-22317D01*
D02*
G37*
G36*
X-286750D02*
X-287432Y-24861D01*
X-288749Y-27142D01*
X-290611Y-29004D01*
X-292892Y-30322D01*
X-295436Y-31003D01*
X-298070D01*
X-300614Y-30322D01*
X-302895Y-29004D01*
X-304758Y-27142D01*
X-306075Y-24861D01*
X-306756Y-22317D01*
Y-21000D01*
X-286750D01*
Y-22317D01*
D02*
G37*
D10*
X-105000Y-19000D02*
D03*
Y-65000D02*
D03*
Y20000D02*
D03*
D11*
X0Y0D02*
D03*
D13*
X-232955Y-16330D02*
X-230872Y-14247D01*
X-225622D02*
X-216625Y-5250D01*
X-230872Y-14247D02*
X-225622D01*
X-200187Y-12687D02*
X-198438D01*
X-197125Y-14000D01*
X-207625Y-5250D02*
X-200625Y-12250D01*
X-216625Y-5250D02*
X-207625D01*
X-233250Y-10875D02*
X-226875D01*
X-218250Y-2250D01*
X-205125D01*
X-197125Y-10250D01*
X-248625Y-16330D02*
X-232955D01*
X-197125Y-10250D02*
X-187625D01*
X-188125Y-16500D02*
X-184125D01*
X-189500D02*
X-188125D01*
X-192000Y-14000D02*
X-189500Y-16500D01*
X-197125Y-14000D02*
X-192000D01*
X-184125Y-16500D02*
X-182172Y-18453D01*
X-178422D01*
X-182547Y18203D02*
X-178797D01*
X-184500Y16250D02*
X-182547Y18203D01*
X-178797D02*
X-178750Y18250D01*
X-234375Y11375D02*
X-233625Y10625D01*
X-226625D02*
X-222000Y6000D01*
X-233625Y10625D02*
X-226625D01*
X-200562Y12437D02*
X-198813D01*
X-201000Y12000D02*
X-200562Y12437D01*
X-198813D02*
X-197500Y13750D01*
X-192375D01*
X-189875Y16250D01*
X-188500D01*
X-184500D01*
X-197500Y10000D02*
X-188000D01*
X-206500Y1000D02*
X-197500Y10000D01*
X-231250Y14000D02*
X-226000D01*
X-233330Y16080D02*
X-231250Y14000D01*
X-249000Y16080D02*
X-233330D01*
X-207750Y1000D02*
X-206500D01*
X-217000D02*
X-207750D01*
X-222000Y6000D02*
X-217000Y1000D01*
X-208000Y5000D02*
X-201000Y12000D01*
X-217000Y5000D02*
X-208000D01*
X-226000Y14000D02*
X-217000Y5000D01*
D14*
X0Y0D02*
X250Y250D01*
X62500D01*
X-297875Y-22750D02*
X-291455Y-16330D01*
X-248625D01*
X-142217Y-20842D02*
X-125625Y-37434D01*
X-119625Y-64250D02*
X-107625D01*
X-125625Y-58250D02*
X-119625Y-64250D01*
X-125625Y-58250D02*
Y-37434D01*
X-118435Y-16440D02*
X-112625Y-22250D01*
X-163375Y-18500D02*
X-144559D01*
X-142217Y-20842D01*
X-187625Y-10250D02*
X-124625D01*
X-118435Y-16440D01*
X-340000Y-11625D02*
X-234000D01*
X-351625Y-23250D02*
X-340000Y-11625D01*
X-178375Y-18500D02*
X-163375D01*
X-298250Y22500D02*
Y25250D01*
X-352000Y23000D02*
Y25750D01*
X-178750Y18250D02*
X-163750D01*
X-352000Y23000D02*
X-340375Y11375D01*
X-234375D01*
X-125000Y10000D02*
X-118810Y16190D01*
X-188000Y10000D02*
X-125000D01*
X-144934Y18250D02*
X-142592Y20592D01*
X-163750Y18250D02*
X-144934D01*
X-118810Y16190D02*
X-113000Y22000D01*
X-126000Y37184D02*
Y58000D01*
X-120000Y64000D01*
X-108000D01*
X-142592Y20592D02*
X-126000Y37184D01*
X-118810Y16190D02*
Y16190D01*
X-291830Y16080D02*
X-249000D01*
X-298250Y22500D02*
X-291830Y16080D01*
D15*
X62500Y250D02*
D03*
M02*
